<svg width="224.824" height="71.8396" viewBox="0 0 59.4846 19.0075" xmlns="http://www.w3.org/2000/svg" xmlns:xlink="http://www.w3.org/1999/xlink" id="svg8" overflow="hidden"><defs id="defs2"></defs><g id="layer1" transform="translate(65.2721 -136.306)"><g id="g4792" transform="matrix(0.352778 0 0 -0.352778 -146.89 282.061)"><g id="g40" transform="translate(357.812 373.991)"><path d="M0 0C0 1.524-0.342 2.744-1.025 3.66-1.71 4.577-2.726 5.035-4.072 5.035-4.515 5.035-4.923 5.018-5.299 4.985-5.675 4.951-5.983 4.912-6.226 4.869L-6.226-4.04C-5.917-4.239-5.513-4.404-5.017-4.537-4.52-4.67-4.019-4.735-3.511-4.735-1.17-4.735 0-3.157 0 0M5.035 0.132C5.035-1.214 4.869-2.439 4.538-3.543 4.208-4.647 3.721-5.597 3.081-6.392 2.44-7.187 1.646-7.806 0.697-8.246-0.253-8.688-1.346-8.909-2.582-8.909-3.268-8.909-3.908-8.843-4.504-8.71-5.1-8.578-5.675-8.391-6.226-8.147L-6.226-14.705-11.161-14.705-11.161 8.248C-10.719 8.38-10.211 8.507-9.637 8.628-9.063 8.749-8.462 8.854-7.832 8.943-7.203 9.03-6.562 9.103-5.91 9.157-5.26 9.213-4.636 9.241-4.04 9.241-2.604 9.241-1.324 9.025-0.198 8.596 0.929 8.164 1.878 7.557 2.651 6.773 3.423 5.989 4.014 5.035 4.422 3.908 4.83 2.783 5.035 1.524 5.035 0.132" id="path42" fill="#0CC7D3"/></g><g id="g4771"><g id="g20" transform="translate(272.354 382.537)"><path d="M0 0C0.198-1.104 0.457-2.279 0.775-3.527 1.094-4.773 1.446-6.043 1.83-7.334 2.215-8.625 2.624-9.901 3.055-11.16 3.486-12.419 3.924-13.601 4.368-14.706 4.744-13.867 5.143-12.848 5.563-11.646 5.985-10.443 6.405-9.175 6.827-7.84 7.248-6.506 7.641-5.159 8.006-3.798 8.372-2.438 8.676-1.173 8.92 8.88178e-16L11.041 8.88178e-16C10.243-3.364 9.374-6.436 8.432-9.214 7.49-11.994 6.454-14.631 5.324-17.124L3.329-17.124C2.993-16.343 2.643-15.474 2.276-14.515 1.908-13.555 1.529-12.528 1.14-11.437 0.752-10.345 0.375-9.198 0.011-7.996-0.353-6.794-0.701-5.563-1.031-4.306-1.361-5.567-1.708-6.799-2.07-8.004-2.433-9.209-2.809-10.358-3.195-11.451-3.583-12.544-3.959-13.569-4.325-14.53-4.69-15.49-5.038-16.355-5.367-17.124L-7.437-17.124C-8.57-14.631-9.605-11.991-10.542-9.21-11.481-6.428-12.345-3.358-13.137-1.77636e-15L-10.852-1.77636e-15C-10.607-1.17-10.303-2.435-9.937-3.791-9.571-5.149-9.178-6.496-8.756-7.831-8.335-9.166-7.908-10.43-7.477-11.624-7.046-12.816-6.642-13.834-6.264-14.672-5.842-13.574-5.417-12.394-4.993-11.133-4.569-9.872-4.17-8.601-3.796-7.32-3.423-6.039-3.071-4.775-2.743-3.525-2.414-2.278-2.117-1.103-1.856-2.22045e-15Z" id="path22" fill="#0CC7D3"/></g><g id="g24" transform="translate(292.37 366.97)"><path d="M0 0C0.839 0 1.574 0.027 2.204 0.084 2.833 0.138 3.368 0.211 3.81 0.298L3.81 6.326C3.566 6.437 3.181 6.553 2.651 6.674 2.12 6.795 1.392 6.855 0.463 6.855-0.066 6.855-0.617 6.818-1.191 6.74-1.767 6.663-2.296 6.497-2.782 6.244-3.268 5.989-3.664 5.642-3.974 5.201-4.283 4.759-4.438 4.174-4.438 3.445-4.438 2.805-4.333 2.263-4.123 1.822-3.914 1.38-3.616 1.027-3.229 0.762-2.842 0.498-2.378 0.304-1.838 0.183-1.296 0.061-0.685 0 0 0M-0.198 15.965C0.929 15.965 1.883 15.805 2.667 15.483 3.45 15.164 4.084 14.722 4.571 14.159 5.056 13.597 5.41 12.929 5.63 12.155 5.852 11.383 5.962 10.543 5.962 9.639L5.962-1.158C5.741-1.225 5.42-1.298 5.001-1.374 4.582-1.451 4.096-1.534 3.544-1.622 2.992-1.71 2.38-1.782 1.706-1.838 1.032-1.894 0.342-1.92-0.364-1.92-1.27-1.92-2.103-1.821-2.864-1.622-3.626-1.424-4.288-1.108-4.852-0.679-5.415-0.248-5.857 0.304-6.176 0.978-6.497 1.651-6.656 2.474-6.656 3.445-6.656 4.372-6.479 5.167-6.126 5.829-5.773 6.492-5.277 7.038-4.636 7.469-3.996 7.899-3.234 8.214-2.35 8.412-1.468 8.612-0.508 8.712 0.531 8.712 0.839 8.712 1.165 8.694 1.508 8.662 1.849 8.628 2.181 8.584 2.501 8.528 2.821 8.473 3.097 8.418 3.329 8.364 3.561 8.308 3.721 8.259 3.81 8.214L3.81 9.273C3.81 9.87 3.765 10.45 3.676 11.014 3.589 11.575 3.395 12.083 3.097 12.536 2.799 12.989 2.38 13.353 1.838 13.629 1.298 13.905 0.585 14.043-0.298 14.043-1.557 14.043-2.495 13.955-3.113 13.778-3.731 13.601-4.185 13.458-4.47 13.348L-4.77 15.235C-4.394 15.412-3.814 15.578-3.029 15.732-2.247 15.887-1.302 15.965-0.198 15.965" id="path26" fill="#0CC7D3"/></g><g id="g28" transform="translate(305.85 382.537)"><path d="M0 0 6.822 0 6.822-1.822 0-1.822 0-10.93C0-11.901 0.082-12.691 0.248-13.298 0.414-13.905 0.651-14.374 0.959-14.706 1.27-15.037 1.644-15.259 2.086-15.367 2.528-15.479 3.013-15.533 3.543-15.533 4.449-15.533 5.177-15.43 5.729-15.22 6.282-15.009 6.711-14.816 7.021-14.64L7.551-16.428C7.241-16.626 6.701-16.854 5.928-17.107 5.155-17.36 4.317-17.487 3.411-17.487 2.352-17.487 1.462-17.35 0.745-17.073 0.027-16.798-0.547-16.378-0.977-15.815-1.408-15.252-1.711-14.552-1.888-13.713-2.064-12.873-2.153-11.88-2.153-10.731L-2.153 5.033 0 5.431Z" id="path30" fill="#0CC7D3"/></g><g id="g32" transform="translate(327.775 375.35)"><path d="M0 0C-0.045 1.788-0.464 3.18-1.259 4.173-2.054 5.167-3.18 5.663-4.638 5.663-5.41 5.663-6.1 5.508-6.708 5.199-7.314 4.891-7.845 4.476-8.297 3.958-8.749 3.438-9.103 2.837-9.357 2.152-9.61 1.468-9.76 0.751-9.803 0ZM-12.154-1.358C-12.154 0.143-11.94 1.451-11.509 2.566-11.079 3.682-10.516 4.614-9.82 5.365-9.125 6.116-8.33 6.674-7.436 7.037-6.542 7.402-5.62 7.585-4.67 7.585-2.573 7.585-0.9 6.9 0.348 5.531 1.596 4.162 2.22 2.054 2.22-0.795 2.22-0.972 2.213-1.148 2.202-1.324 2.191-1.503 2.175-1.667 2.153-1.822L-9.87-1.822C-9.803-3.92-9.285-5.53-8.314-6.657-7.343-7.784-5.797-8.346-3.677-8.346-2.507-8.346-1.58-8.236-0.894-8.016-0.211-7.795 0.287-7.607 0.596-7.452L0.993-9.307C0.685-9.483 0.104-9.693-0.745-9.937-1.596-10.179-2.595-10.3-3.743-10.3-5.244-10.3-6.524-10.079-7.585-9.639-8.645-9.196-9.518-8.577-10.201-7.784-10.886-6.988-11.383-6.044-11.691-4.951-12.001-3.858-12.154-2.661-12.154-1.358" id="path34" fill="#0CC7D3"/></g><g id="g36" transform="translate(340.625 382.868)"><path d="M0 0C0.706 0 1.374-0.057 2.004-0.166 2.633-0.277 3.068-0.387 3.313-0.497L2.881-2.352C2.705-2.264 2.346-2.17 1.805-2.07 1.264-1.972 0.551-1.922-0.332-1.922-1.259-1.922-2.004-1.987-2.567-2.12-3.131-2.253-3.5-2.363-3.677-2.451L-3.677-17.455-5.829-17.455-5.829-1.127C-5.277-0.884-4.516-0.636-3.544-0.381-2.573-0.128-1.391 0 0 0" id="path38" fill="#0CC7D3"/></g><path d="M371.591 365.413 366.656 365.413 366.656 382.835 371.591 382.835ZM372.055 387.869C372.055 386.964 371.763 386.251 371.178 385.732 370.593 385.213 369.902 384.954 369.107 384.954 368.312 384.954 367.622 385.213 367.037 385.732 366.452 386.251 366.16 386.964 366.16 387.869 366.16 388.773 366.452 389.486 367.037 390.006 367.622 390.523 368.312 390.783 369.107 390.783 369.902 390.783 370.593 390.523 371.178 390.006 371.763 389.486 372.055 388.773 372.055 387.869" id="path44" fill="#0CC7D3"/><g id="g4713"><g id="g46" transform="translate(232.201 376.489)"><path d="M0 0C0.75 1.252 1.305 1.945 1.98 2.814 2.629 3.626 3.298 4.397 3.985 5.137 5.366 6.614 6.816 7.973 8.325 9.242 11.344 11.775 14.59 13.935 17.96 15.786 24.719 19.481 31.968 21.908 39.28 23.42 53.912 26.5 68.898 25.749 83.039 23.993 97.255 22.543 111.458 20.927 125.666 20.287 132.758 20.017 139.885 20.012 146.876 21.146 153.872 22.234 160.617 24.835 166.74 28.531 160.862 24.47 154.203 21.402 147.129 19.854 140.07 18.256 132.822 17.816 125.64 17.649 111.253 17.413 96.944 18.159 82.648 18.731 75.451 19.068 68.498 19.396 61.525 18.939 54.578 18.517 47.701 17.517 41.109 15.722 34.525 13.934 28.216 11.347 22.625 7.818 19.836 6.055 17.221 4.061 14.894 1.848 13.734 0.741 12.644-0.421 11.655-1.624 11.162-2.223 10.695-2.836 10.267-3.444 9.873-4.006 9.39-4.775 9.25-5.074 8.035-7.73 4.898-8.896 2.241-7.68-0.414-6.463-1.577-3.325-0.362-0.669-0.279-0.492-0.189-0.321-0.096-0.157Z" id="path48" fill="#0CC7D3"/></g><g id="g50" transform="translate(398.838 408.353)"><path d="M0 0C-2.663-1.85-5.157-2.978-7.837-4.093-10.488-5.162-13.188-6.031-15.915-6.737-21.382-8.149-26.908-8.954-32.493-9.257-38.069-9.507-43.595-9.193-49.069-8.641-54.551-8.076-59.988-7.276-65.373-6.21-59.924-6.85-54.456-7.217-48.991-7.348-43.531-7.466-38.066-7.34-32.716-6.677-27.389-5.965-22.088-4.726-17.055-2.977-14.536-2.1-12.077-1.078-9.729 0.103-7.433 1.261-5.026 2.68-3.299 4.115L-3.195 4.202C-2.073 5.135-0.408 4.981 0.524 3.859 1.46 2.737 1.306 1.071 0.186 0.139 0.122 0.09 0.062 0.042 0 0" id="path52" fill="#0CC7D3"/></g></g></g></g></g></svg>